<?xml version="1.0" standalone="no"?>
<svg xmlns:xlink="http://www.w3.org/1999/xlink" id="wave" style="transform:rotate(180deg); transition: 0.3s" viewBox="0 0 1440 490" version="1.1" xmlns="http://www.w3.org/2000/svg"><defs><linearGradient id="sw-gradient-0" x1="0" x2="0" y1="1" y2="0"><stop stop-color="rgba(252, 127, 80, 1)" offset="0%"/><stop stop-color="rgba(252, 127, 80, 1)" offset="100%"/></linearGradient></defs><path style="transform:translate(0, 0px); opacity:1" fill="url(#sw-gradient-0)" d="M0,441L80,432.8C160,425,320,408,480,334.8C640,261,800,131,960,89.8C1120,49,1280,98,1440,163.3C1600,229,1760,310,1920,326.7C2080,343,2240,294,2400,228.7C2560,163,2720,82,2880,106.2C3040,131,3200,261,3360,326.7C3520,392,3680,392,3840,343C4000,294,4160,196,4320,179.7C4480,163,4640,229,4800,228.7C4960,229,5120,163,5280,179.7C5440,196,5600,294,5760,310.3C5920,327,6080,261,6240,212.3C6400,163,6560,131,6720,122.5C6880,114,7040,131,7200,114.3C7360,98,7520,49,7680,57.2C7840,65,8000,131,8160,130.7C8320,131,8480,65,8640,49C8800,33,8960,65,9120,106.2C9280,147,9440,196,9600,204.2C9760,212,9920,180,10080,147C10240,114,10400,82,10560,73.5C10720,65,10880,82,11040,122.5C11200,163,11360,229,11440,261.3L11520,294L11520,490L11440,490C11360,490,11200,490,11040,490C10880,490,10720,490,10560,490C10400,490,10240,490,10080,490C9920,490,9760,490,9600,490C9440,490,9280,490,9120,490C8960,490,8800,490,8640,490C8480,490,8320,490,8160,490C8000,490,7840,490,7680,490C7520,490,7360,490,7200,490C7040,490,6880,490,6720,490C6560,490,6400,490,6240,490C6080,490,5920,490,5760,490C5600,490,5440,490,5280,490C5120,490,4960,490,4800,490C4640,490,4480,490,4320,490C4160,490,4000,490,3840,490C3680,490,3520,490,3360,490C3200,490,3040,490,2880,490C2720,490,2560,490,2400,490C2240,490,2080,490,1920,490C1760,490,1600,490,1440,490C1280,490,1120,490,960,490C800,490,640,490,480,490C320,490,160,490,80,490L0,490Z"/></svg>